<svg width="176" height="16" viewBox="0 0 176 16" fill="none" xmlns="http://www.w3.org/2000/svg">
<path d="M10.2422 11.1797V12H1.30469V11.1797H10.2422ZM1.51562 11.1797V14.7578H0.5625V11.1797H1.51562ZM11.0703 11.1797L11.0625 14.7578H10.1016V11.1797H11.0703ZM9.08594 0.625V1.45312H3.91406V0.625H9.08594ZM9.85156 0.625V12H8.89844V0.625H9.85156ZM3.57031 0.625H4.53125L4.32812 4.72656C4.29167 5.46094 4.21875 6.14062 4.10938 6.76562C4.00521 7.39062 3.875 7.96354 3.71875 8.48438C3.5625 9.00521 3.39062 9.47135 3.20312 9.88281C3.01562 10.2891 2.82031 10.6406 2.61719 10.9375C2.41406 11.2292 2.20833 11.4661 2 11.6484C1.79688 11.8255 1.60156 11.9427 1.41406 12H0.820312V11.1797H1.32031C1.44531 11.0495 1.60938 10.8359 1.8125 10.5391C2.01562 10.237 2.22396 9.83333 2.4375 9.32812C2.65625 8.81771 2.84896 8.1849 3.01562 7.42969C3.1875 6.66927 3.30469 5.76823 3.36719 4.72656L3.57031 0.625ZM15.6703 12.1562C15.1182 12.1562 14.6104 12.0547 14.1469 11.8516C13.6885 11.6484 13.2875 11.362 12.9438 10.9922C12.6052 10.6224 12.3422 10.1849 12.1547 9.67969C11.9724 9.16927 11.8813 8.61198 11.8813 8.00781V7.67188C11.8813 7.02083 11.9776 6.43229 12.1703 5.90625C12.363 5.38021 12.6286 4.92969 12.9672 4.55469C13.3057 4.17969 13.6911 3.89323 14.1234 3.69531C14.5609 3.49219 15.0193 3.39062 15.4984 3.39062C16.0349 3.39062 16.5115 3.48698 16.9281 3.67969C17.3448 3.86719 17.6938 4.13542 17.975 4.48438C18.2615 4.82812 18.4776 5.23698 18.6234 5.71094C18.7693 6.17969 18.8422 6.69792 18.8422 7.26562V7.83594H12.4438V7.03906H17.9125V6.92969C17.9021 6.45573 17.8057 6.01302 17.6234 5.60156C17.4464 5.1849 17.1807 4.84635 16.8266 4.58594C16.4724 4.32552 16.0297 4.19531 15.4984 4.19531C15.1026 4.19531 14.738 4.27865 14.4047 4.44531C14.0766 4.61198 13.7927 4.85156 13.5531 5.16406C13.3188 5.47135 13.1365 5.83854 13.0063 6.26562C12.8813 6.6875 12.8188 7.15625 12.8188 7.67188V8.00781C12.8188 8.47656 12.8865 8.91406 13.0219 9.32031C13.1625 9.72135 13.3604 10.0755 13.6156 10.3828C13.876 10.6901 14.1833 10.9297 14.5375 11.1016C14.8917 11.2734 15.2823 11.3594 15.7094 11.3594C16.2094 11.3594 16.6521 11.2682 17.0375 11.0859C17.4229 10.8984 17.7693 10.6042 18.0766 10.2031L18.6625 10.6562C18.4802 10.9271 18.251 11.1771 17.975 11.4062C17.7042 11.6354 17.3786 11.8177 16.9984 11.9531C16.6182 12.0885 16.1755 12.1562 15.6703 12.1562ZM23.1766 3.54688V12H22.2469V3.54688H23.1766ZM26.2547 3.54688V4.34375H19.2781V3.54688H26.2547ZM29.8937 11.3516C30.2896 11.3516 30.6594 11.2786 31.0031 11.1328C31.3521 10.9818 31.6385 10.7604 31.8625 10.4688C32.0917 10.1719 32.2219 9.8099 32.2531 9.38281H33.1437C33.1177 9.91927 32.9536 10.3984 32.6516 10.8203C32.3547 11.237 31.9641 11.5651 31.4797 11.8047C31.0005 12.0391 30.4719 12.1562 29.8937 12.1562C29.3052 12.1562 28.7844 12.0495 28.3312 11.8359C27.8833 11.6224 27.5083 11.3255 27.2062 10.9453C26.9042 10.5599 26.675 10.112 26.5187 9.60156C26.3677 9.08594 26.2922 8.53125 26.2922 7.9375V7.60938C26.2922 7.01562 26.3677 6.46354 26.5187 5.95312C26.675 5.4375 26.9042 4.98958 27.2062 4.60938C27.5083 4.22396 27.8833 3.92448 28.3312 3.71094C28.7792 3.4974 29.2974 3.39062 29.8859 3.39062C30.4901 3.39062 31.0318 3.51302 31.5109 3.75781C31.9953 4.0026 32.3807 4.34896 32.6672 4.79688C32.9589 5.24479 33.1177 5.77604 33.1437 6.39062H32.2531C32.2271 5.9375 32.1073 5.54688 31.8937 5.21875C31.6802 4.89062 31.399 4.63802 31.05 4.46094C30.701 4.28385 30.313 4.19531 29.8859 4.19531C29.4068 4.19531 28.9979 4.28906 28.6594 4.47656C28.3208 4.65885 28.0448 4.91146 27.8312 5.23438C27.6229 5.55208 27.4693 5.91667 27.3703 6.32812C27.2714 6.73438 27.2219 7.16146 27.2219 7.60938V7.9375C27.2219 8.39062 27.2687 8.82292 27.3625 9.23438C27.4615 9.64062 27.6151 10.0026 27.8234 10.3203C28.037 10.638 28.313 10.8906 28.6516 11.0781C28.9953 11.2604 29.4094 11.3516 29.8937 11.3516ZM35.6188 3.54688V12H34.6813V3.54688H35.6188ZM41.1813 3.54688L37.3063 8.125H35.2906L35.1891 7.28906H36.9078L40.0016 3.54688H41.1813ZM40.3375 12L36.8141 8L37.4078 7.28125L41.5719 12H40.3375ZM43.5078 10.4844L48.0781 3.54688H49.0156V12H48.0781V5.0625L43.5078 12H42.5859V3.54688H43.5078V10.4844ZM52.1078 10.4844L56.6781 3.54688H57.6156V12H56.6781V5.0625L52.1078 12H51.1859V3.54688H52.1078V10.4844ZM55.8187 0.515625H56.6156C56.6156 0.90625 56.5245 1.2526 56.3422 1.55469C56.1651 1.85677 55.9073 2.09375 55.5687 2.26562C55.2302 2.4375 54.8292 2.52344 54.3656 2.52344C53.6677 2.52344 53.1156 2.33594 52.7094 1.96094C52.3083 1.58594 52.1078 1.10417 52.1078 0.515625H52.8969C52.8969 0.875 53.0062 1.1875 53.225 1.45312C53.449 1.71354 53.8292 1.84375 54.3656 1.84375C54.8865 1.84375 55.2589 1.71094 55.4828 1.44531C55.7068 1.17969 55.8187 0.869792 55.8187 0.515625ZM66.3469 11.3516C66.7427 11.3516 67.1125 11.2786 67.4562 11.1328C67.8052 10.9818 68.0917 10.7604 68.3156 10.4688C68.5448 10.1719 68.675 9.8099 68.7062 9.38281H69.5969C69.5708 9.91927 69.4068 10.3984 69.1047 10.8203C68.8078 11.237 68.4172 11.5651 67.9328 11.8047C67.4536 12.0391 66.925 12.1562 66.3469 12.1562C65.7583 12.1562 65.2375 12.0495 64.7844 11.8359C64.3365 11.6224 63.9615 11.3255 63.6594 10.9453C63.3573 10.5599 63.1281 10.112 62.9719 9.60156C62.8208 9.08594 62.7453 8.53125 62.7453 7.9375V7.60938C62.7453 7.01562 62.8208 6.46354 62.9719 5.95312C63.1281 5.4375 63.3573 4.98958 63.6594 4.60938C63.9615 4.22396 64.3365 3.92448 64.7844 3.71094C65.2323 3.4974 65.7505 3.39062 66.3391 3.39062C66.9432 3.39062 67.4849 3.51302 67.9641 3.75781C68.4484 4.0026 68.8339 4.34896 69.1203 4.79688C69.412 5.24479 69.5708 5.77604 69.5969 6.39062H68.7062C68.6802 5.9375 68.5604 5.54688 68.3469 5.21875C68.1333 4.89062 67.8521 4.63802 67.5031 4.46094C67.1542 4.28385 66.7661 4.19531 66.3391 4.19531C65.8599 4.19531 65.451 4.28906 65.1125 4.47656C64.774 4.65885 64.4979 4.91146 64.2844 5.23438C64.076 5.55208 63.9224 5.91667 63.8234 6.32812C63.7245 6.73438 63.675 7.16146 63.675 7.60938V7.9375C63.675 8.39062 63.7219 8.82292 63.8156 9.23438C63.9146 9.64062 64.0682 10.0026 64.2766 10.3203C64.4901 10.638 64.7661 10.8906 65.1047 11.0781C65.4484 11.2604 65.8625 11.3516 66.3469 11.3516ZM74.8141 8.10156H71.8453L71.8297 7.32031H74.3609C74.8714 7.32031 75.2958 7.26562 75.6344 7.15625C75.9781 7.04167 76.2359 6.8724 76.4078 6.64844C76.5849 6.42448 76.6734 6.14844 76.6734 5.82031C76.6734 5.57031 76.6214 5.35156 76.5172 5.16406C76.4182 4.97656 76.2672 4.82292 76.0641 4.70312C75.8661 4.58333 75.6161 4.49479 75.3141 4.4375C75.0172 4.375 74.6708 4.34375 74.275 4.34375H72.1109V12H71.1813V3.54688H74.275C74.7906 3.54688 75.2516 3.59375 75.6578 3.6875C76.0693 3.77604 76.4208 3.91146 76.7125 4.09375C77.0042 4.27604 77.2255 4.51042 77.3766 4.79688C77.5328 5.07812 77.6109 5.41146 77.6109 5.79688C77.6109 6.05729 77.5615 6.30208 77.4625 6.53125C77.3635 6.75521 77.2177 6.95833 77.025 7.14062C76.8375 7.31771 76.6057 7.46354 76.3297 7.57812C76.0536 7.6875 75.7359 7.75521 75.3766 7.78125L74.8141 8.10156ZM74.8141 12H71.5563L71.9156 11.2031H74.8141C75.2828 11.2031 75.6813 11.1432 76.0094 11.0234C76.3375 10.9036 76.5849 10.7266 76.7516 10.4922C76.9234 10.2578 77.0094 9.97396 77.0094 9.64062C77.0094 9.32812 76.9234 9.05729 76.7516 8.82812C76.5849 8.59896 76.3375 8.42188 76.0094 8.29688C75.6813 8.16667 75.2828 8.10156 74.8141 8.10156H72.6578L72.6734 7.32031H75.4469L75.8453 7.61719C76.2724 7.65365 76.6422 7.76823 76.9547 7.96094C77.2672 8.15365 77.5094 8.39844 77.6813 8.69531C77.8531 8.98698 77.9391 9.30729 77.9391 9.65625C77.9391 10.0417 77.8661 10.3828 77.7203 10.6797C77.5745 10.9714 77.3635 11.2161 77.0875 11.4141C76.8167 11.6068 76.4885 11.7526 76.1031 11.8516C75.7177 11.9505 75.288 12 74.8141 12ZM80.6172 10.4844L85.1875 3.54688H86.125V12H85.1875V5.0625L80.6172 12H79.6953V3.54688H80.6172V10.4844ZM91.2172 3.54688V12H90.2875V3.54688H91.2172ZM94.2953 3.54688V4.34375H87.3187V3.54688H94.2953ZM98.0828 12.1562C97.5307 12.1562 97.0229 12.0547 96.5594 11.8516C96.101 11.6484 95.7 11.362 95.3562 10.9922C95.0177 10.6224 94.7547 10.1849 94.5672 9.67969C94.3849 9.16927 94.2937 8.61198 94.2937 8.00781V7.67188C94.2937 7.02083 94.3901 6.43229 94.5828 5.90625C94.7755 5.38021 95.0411 4.92969 95.3797 4.55469C95.7182 4.17969 96.1036 3.89323 96.5359 3.69531C96.9734 3.49219 97.4318 3.39062 97.9109 3.39062C98.4474 3.39062 98.924 3.48698 99.3406 3.67969C99.7573 3.86719 100.106 4.13542 100.387 4.48438C100.674 4.82812 100.89 5.23698 101.036 5.71094C101.182 6.17969 101.255 6.69792 101.255 7.26562V7.83594H94.8562V7.03906H100.325V6.92969C100.315 6.45573 100.218 6.01302 100.036 5.60156C99.8589 5.1849 99.5932 4.84635 99.2391 4.58594C98.8849 4.32552 98.4422 4.19531 97.9109 4.19531C97.5151 4.19531 97.1505 4.27865 96.8172 4.44531C96.4891 4.61198 96.2052 4.85156 95.9656 5.16406C95.7312 5.47135 95.549 5.83854 95.4187 6.26562C95.2937 6.6875 95.2312 7.15625 95.2312 7.67188V8.00781C95.2312 8.47656 95.299 8.91406 95.4344 9.32031C95.575 9.72135 95.7729 10.0755 96.0281 10.3828C96.2885 10.6901 96.5958 10.9297 96.95 11.1016C97.3042 11.2734 97.6948 11.3594 98.1219 11.3594C98.6219 11.3594 99.0646 11.2682 99.45 11.0859C99.8354 10.8984 100.182 10.6042 100.489 10.2031L101.075 10.6562C100.893 10.9271 100.664 11.1771 100.387 11.4062C100.117 11.6354 99.7911 11.8177 99.4109 11.9531C99.0307 12.0885 98.588 12.1562 98.0828 12.1562ZM103.62 5.17188V15.25H102.683V3.54688H103.558L103.62 5.17188ZM109.495 7.69531V7.85938C109.495 8.48958 109.422 9.06771 109.277 9.59375C109.131 10.1198 108.92 10.5755 108.644 10.9609C108.373 11.3411 108.037 11.6354 107.636 11.8438C107.235 12.0521 106.779 12.1562 106.269 12.1562C105.764 12.1562 105.313 12.0781 104.917 11.9219C104.521 11.7656 104.18 11.5443 103.894 11.2578C103.613 10.9661 103.386 10.6276 103.214 10.2422C103.047 9.85156 102.93 9.42448 102.863 8.96094V6.79688C102.941 6.28646 103.068 5.82292 103.245 5.40625C103.422 4.98958 103.649 4.63021 103.925 4.32812C104.206 4.02604 104.54 3.79427 104.925 3.63281C105.31 3.47135 105.751 3.39062 106.245 3.39062C106.761 3.39062 107.219 3.49219 107.62 3.69531C108.027 3.89323 108.368 4.18229 108.644 4.5625C108.925 4.9375 109.136 5.39062 109.277 5.92188C109.422 6.44792 109.495 7.03906 109.495 7.69531ZM108.558 7.85938V7.69531C108.558 7.20052 108.506 6.74219 108.402 6.32031C108.303 5.89844 108.149 5.53125 107.941 5.21875C107.738 4.90104 107.477 4.65365 107.159 4.47656C106.847 4.29948 106.474 4.21094 106.042 4.21094C105.594 4.21094 105.211 4.28646 104.894 4.4375C104.581 4.58333 104.321 4.77865 104.113 5.02344C103.904 5.26302 103.74 5.52604 103.62 5.8125C103.501 6.09896 103.412 6.38021 103.355 6.65625V9.14844C103.454 9.54427 103.613 9.91146 103.831 10.25C104.05 10.5833 104.342 10.8516 104.706 11.0547C105.076 11.2526 105.527 11.3516 106.058 11.3516C106.485 11.3516 106.855 11.263 107.167 11.0859C107.48 10.9089 107.738 10.6615 107.941 10.3438C108.149 10.026 108.303 9.65625 108.402 9.23438C108.506 8.8125 108.558 8.35417 108.558 7.85938ZM119.289 0.625L114.539 12.9766H113.695L118.445 0.625H119.289ZM127.067 7.90625H125.708V7.27344H126.989C127.51 7.27344 127.924 7.21354 128.231 7.09375C128.539 6.96875 128.76 6.79427 128.895 6.57031C129.031 6.34635 129.098 6.08333 129.098 5.78125C129.098 5.48958 129.026 5.22396 128.88 4.98438C128.739 4.74479 128.512 4.55208 128.2 4.40625C127.887 4.26042 127.473 4.1875 126.958 4.1875C126.562 4.1875 126.197 4.25781 125.864 4.39844C125.531 4.53906 125.262 4.73177 125.059 4.97656C124.861 5.22135 124.762 5.50521 124.762 5.82812H123.825C123.825 5.32812 123.971 4.89583 124.262 4.53125C124.554 4.16667 124.937 3.88542 125.411 3.6875C125.89 3.48958 126.406 3.39062 126.958 3.39062C127.437 3.39062 127.867 3.44271 128.247 3.54688C128.627 3.65104 128.95 3.80469 129.216 4.00781C129.481 4.21094 129.684 4.46354 129.825 4.76562C129.966 5.0625 130.036 5.40365 130.036 5.78906C130.036 6.08073 129.968 6.35417 129.833 6.60938C129.703 6.86458 129.51 7.09115 129.255 7.28906C129.005 7.48177 128.695 7.63281 128.325 7.74219C127.96 7.85156 127.541 7.90625 127.067 7.90625ZM125.708 7.47656H127.067C127.588 7.47656 128.044 7.52604 128.434 7.625C128.825 7.71875 129.151 7.85938 129.411 8.04688C129.671 8.23438 129.864 8.46615 129.989 8.74219C130.119 9.01302 130.184 9.32552 130.184 9.67969C130.184 10.0651 130.106 10.4115 129.95 10.7188C129.799 11.026 129.58 11.2865 129.294 11.5C129.007 11.7135 128.666 11.875 128.27 11.9844C127.874 12.0938 127.437 12.1484 126.958 12.1484C126.442 12.1484 125.932 12.0573 125.427 11.875C124.927 11.6927 124.512 11.4115 124.184 11.0312C123.856 10.651 123.692 10.1667 123.692 9.57812H124.622C124.622 9.90104 124.723 10.1979 124.927 10.4688C125.13 10.7396 125.406 10.9557 125.755 11.1172C126.109 11.2786 126.51 11.3594 126.958 11.3594C127.463 11.3594 127.885 11.2891 128.223 11.1484C128.562 11.0026 128.817 10.8047 128.989 10.5547C129.161 10.3047 129.247 10.0182 129.247 9.69531C129.247 9.3151 129.164 9.00781 128.997 8.77344C128.835 8.53906 128.588 8.36719 128.255 8.25781C127.921 8.14844 127.499 8.09375 126.989 8.09375H125.708V7.47656ZM132.839 10.4844L137.409 3.54688H138.347V12H137.409V5.0625L132.839 12H131.917V3.54688H132.839V10.4844ZM145.127 10.7188L148.486 3.54688H149.416L145.455 12H144.798L140.845 3.54688H141.775L145.127 10.7188ZM141.486 3.54688V12H140.556V3.54688H141.486ZM148.705 12V3.54688H149.642V12H148.705ZM157.523 7.32812V8.125H152.508V7.32812H157.523ZM152.75 3.54688V12H151.82V3.54688H152.75ZM158.242 3.54688V12H157.305V3.54688H158.242ZM161.342 10.4844L165.913 3.54688H166.85V12H165.913V5.0625L161.342 12H160.42V3.54688H161.342V10.4844ZM169.942 10.4844L174.512 3.54688H175.45V12H174.512V5.0625L169.942 12H169.02V3.54688H169.942V10.4844ZM173.653 0.515625H174.45C174.45 0.90625 174.359 1.2526 174.177 1.55469C173.999 1.85677 173.742 2.09375 173.403 2.26562C173.065 2.4375 172.664 2.52344 172.2 2.52344C171.502 2.52344 170.95 2.33594 170.544 1.96094C170.143 1.58594 169.942 1.10417 169.942 0.515625H170.731C170.731 0.875 170.841 1.1875 171.059 1.45312C171.283 1.71354 171.664 1.84375 172.2 1.84375C172.721 1.84375 173.093 1.71094 173.317 1.44531C173.541 1.17969 173.653 0.869792 173.653 0.515625Z" fill="black"/>
</svg>
