<svg width="200" height="17" viewBox="0 0 200 17" fill="none" xmlns="http://www.w3.org/2000/svg">
<path d="M5.28125 2.78125H6.64062C7.33333 2.78125 7.96615 2.89323 8.53906 3.11719C9.11198 3.34115 9.60677 3.65625 10.0234 4.0625C10.4401 4.46875 10.7604 4.94531 10.9844 5.49219C11.2083 6.03906 11.3203 6.63542 11.3203 7.28125C11.3203 7.92708 11.2083 8.52604 10.9844 9.07812C10.7604 9.625 10.4401 10.1042 10.0234 10.5156C9.60677 10.9219 9.11198 11.2396 8.53906 11.4688C7.96615 11.6927 7.33333 11.8047 6.64062 11.8047H5.28125C4.57812 11.8047 3.9401 11.6927 3.36719 11.4688C2.79948 11.2396 2.30729 10.9219 1.89062 10.5156C1.47917 10.1094 1.16146 9.63281 0.9375 9.08594C0.713542 8.53906 0.601562 7.94271 0.601562 7.29688C0.601562 6.65104 0.713542 6.05469 0.9375 5.50781C1.16146 4.96094 1.47917 4.48438 1.89062 4.07812C2.30729 3.66667 2.79948 3.34896 3.36719 3.125C3.9401 2.89583 4.57812 2.78125 5.28125 2.78125ZM5.28125 3.57812C4.48958 3.57812 3.8125 3.73958 3.25 4.0625C2.69271 4.38021 2.26562 4.82031 1.96875 5.38281C1.67708 5.9401 1.53125 6.57812 1.53125 7.29688C1.53125 7.83854 1.61458 8.33594 1.78125 8.78906C1.94792 9.24219 2.19271 9.63542 2.51562 9.96875C2.83854 10.2969 3.23177 10.5521 3.69531 10.7344C4.15885 10.9167 4.6875 11.0078 5.28125 11.0078H6.65625C7.4375 11.0078 8.10677 10.849 8.66406 10.5312C9.22135 10.2083 9.64844 9.76823 9.94531 9.21094C10.2422 8.64844 10.3906 8.00521 10.3906 7.28125C10.3906 6.74479 10.3047 6.25 10.1328 5.79688C9.96615 5.34375 9.72135 4.95312 9.39844 4.625C9.08073 4.29167 8.6901 4.03385 8.22656 3.85156C7.76823 3.66927 7.24479 3.57812 6.65625 3.57812H5.28125ZM6.42188 1.14844V13.4688H5.48438V1.14844H6.42188ZM15.225 12.1562L17.8578 4.54688H18.8656L15.2875 14.3594C15.2146 14.5521 15.1208 14.7656 15.0063 15C14.8969 15.2344 14.751 15.4583 14.5688 15.6719C14.3917 15.8906 14.1677 16.0677 13.8969 16.2031C13.6313 16.3438 13.3057 16.4141 12.9203 16.4141C12.8214 16.4141 12.6938 16.401 12.5375 16.375C12.3865 16.3542 12.2771 16.3333 12.2094 16.3125L12.2016 15.5234C12.2589 15.5391 12.3422 15.5521 12.4516 15.5625C12.5609 15.5729 12.6365 15.5781 12.6781 15.5781C13.0167 15.5781 13.3005 15.5208 13.5297 15.4062C13.7641 15.2917 13.9594 15.1198 14.1156 14.8906C14.2719 14.6667 14.4099 14.3854 14.5297 14.0469L15.225 12.1562ZM12.7641 4.54688L15.4594 11.8047L15.7094 12.7812L15.0297 13.1641L11.7484 4.54688H12.7641ZM22.9109 4.54688V13H21.9813V4.54688H22.9109ZM25.9891 4.54688V5.34375H19.0125V4.54688H25.9891ZM32.6203 0.867188H33.425C33.425 1.25781 33.3547 1.58333 33.2141 1.84375C33.0786 2.10417 32.8859 2.3151 32.6359 2.47656C32.3859 2.63802 32.0917 2.76562 31.7531 2.85938C31.4198 2.94792 31.0552 3.02344 30.6594 3.08594C30.175 3.15885 29.7297 3.31771 29.3234 3.5625C28.9224 3.80729 28.5786 4.14323 28.2922 4.57031C28.0057 4.99219 27.7896 5.51562 27.6437 6.14062C27.5031 6.76042 27.4458 7.48698 27.4719 8.32031V9.04688H26.6672V8.32031C26.6672 7.40365 26.7557 6.59115 26.9328 5.88281C27.1151 5.16927 27.3729 4.5599 27.7062 4.05469C28.0448 3.54948 28.4458 3.14844 28.9094 2.85156C29.3781 2.54948 29.8964 2.35156 30.4641 2.25781C30.9953 2.17448 31.4172 2.07292 31.7297 1.95312C32.0474 1.83333 32.274 1.6849 32.4094 1.50781C32.55 1.33073 32.6203 1.11719 32.6203 0.867188ZM30.5422 5.10156C31.0943 5.10156 31.5917 5.19531 32.0344 5.38281C32.4771 5.57031 32.8547 5.83594 33.1672 6.17969C33.4849 6.51823 33.7271 6.91927 33.8937 7.38281C34.0656 7.84115 34.1516 8.34375 34.1516 8.89062V9.14062C34.1516 9.72396 34.063 10.2604 33.8859 10.75C33.7141 11.2396 33.4641 11.6641 33.1359 12.0234C32.813 12.3828 32.4198 12.6615 31.9562 12.8594C31.4979 13.0573 30.9849 13.1562 30.4172 13.1562C29.8443 13.1562 29.3286 13.0573 28.8703 12.8594C28.412 12.6615 28.0187 12.3828 27.6906 12.0234C27.3625 11.6641 27.1099 11.2396 26.9328 10.75C26.7557 10.2604 26.6672 9.72396 26.6672 9.14062V8.89062C26.6672 8.73958 26.6828 8.59115 26.7141 8.44531C26.7505 8.29948 26.7948 8.15625 26.8469 8.01562C26.899 7.86979 26.951 7.72656 27.0031 7.58594C27.1854 7.11198 27.4432 6.6901 27.7766 6.32031C28.1099 5.94531 28.5083 5.64844 28.9719 5.42969C29.4406 5.21094 29.9641 5.10156 30.5422 5.10156ZM30.4016 5.89844C29.7922 5.89844 29.2792 6.03906 28.8625 6.32031C28.451 6.59635 28.1385 6.96354 27.925 7.42188C27.7115 7.875 27.6047 8.36458 27.6047 8.89062V9.14062C27.6047 9.57292 27.6646 9.98177 27.7844 10.3672C27.9042 10.7526 28.0812 11.0964 28.3156 11.3984C28.5552 11.6953 28.8495 11.9297 29.1984 12.1016C29.5474 12.2734 29.9536 12.3594 30.4172 12.3594C30.8755 12.3594 31.2792 12.2734 31.6281 12.1016C31.9771 11.9297 32.2687 11.6953 32.5031 11.3984C32.7375 11.0964 32.9146 10.7526 33.0344 10.3672C33.1542 9.98177 33.2141 9.57292 33.2141 9.14062V8.89062C33.2141 8.49479 33.1542 8.11719 33.0344 7.75781C32.9146 7.39844 32.7349 7.08073 32.4953 6.80469C32.2609 6.52344 31.9667 6.30208 31.6125 6.14062C31.2635 5.97917 30.8599 5.89844 30.4016 5.89844ZM35.0328 8.90625V8.64844C35.0328 8.03385 35.1214 7.46615 35.2984 6.94531C35.4755 6.42448 35.7281 5.97396 36.0563 5.59375C36.3896 5.21354 36.788 4.91927 37.2516 4.71094C37.7151 4.4974 38.2307 4.39062 38.7984 4.39062C39.3714 4.39062 39.8896 4.4974 40.3531 4.71094C40.8167 4.91927 41.2151 5.21354 41.5484 5.59375C41.8818 5.97396 42.137 6.42448 42.3141 6.94531C42.4911 7.46615 42.5797 8.03385 42.5797 8.64844V8.90625C42.5797 9.52083 42.4911 10.0885 42.3141 10.6094C42.137 11.125 41.8818 11.5729 41.5484 11.9531C41.2203 12.3333 40.8245 12.6302 40.3609 12.8438C39.8974 13.0521 39.3818 13.1562 38.8141 13.1562C38.2411 13.1562 37.7229 13.0521 37.2594 12.8438C36.7958 12.6302 36.3974 12.3333 36.0641 11.9531C35.7307 11.5729 35.4755 11.125 35.2984 10.6094C35.1214 10.0885 35.0328 9.52083 35.0328 8.90625ZM35.9625 8.64844V8.90625C35.9625 9.36979 36.025 9.8099 36.15 10.2266C36.275 10.638 36.4573 11.0052 36.6969 11.3281C36.9365 11.6458 37.2333 11.8958 37.5875 12.0781C37.9417 12.2604 38.3505 12.3516 38.8141 12.3516C39.2724 12.3516 39.676 12.2604 40.025 12.0781C40.3792 11.8958 40.676 11.6458 40.9156 11.3281C41.1552 11.0052 41.3349 10.638 41.4547 10.2266C41.5797 9.8099 41.6422 9.36979 41.6422 8.90625V8.64844C41.6422 8.1901 41.5797 7.75521 41.4547 7.34375C41.3349 6.93229 41.1526 6.5651 40.9078 6.24219C40.6682 5.91927 40.3714 5.66406 40.0172 5.47656C39.663 5.28906 39.2568 5.19531 38.7984 5.19531C38.3401 5.19531 37.9339 5.28906 37.5797 5.47656C37.2307 5.66406 36.9339 5.91927 36.6891 6.24219C36.4495 6.5651 36.2672 6.93229 36.1422 7.34375C36.0224 7.75521 35.9625 8.1901 35.9625 8.64844ZM49.7266 4.54688V5.35938H45.4453V4.54688H49.7266ZM50.4844 4.54688V13H49.5547V4.54688H50.4844ZM45.1953 4.54688H46.125L45.9375 8.50781C45.9062 9.14844 45.8542 9.71615 45.7812 10.2109C45.7135 10.7057 45.6198 11.1302 45.5 11.4844C45.3802 11.8333 45.2266 12.1198 45.0391 12.3438C44.8568 12.5677 44.6354 12.7344 44.375 12.8438C44.1146 12.9479 43.8099 13 43.4609 13H43.1094V12.1562L43.3984 12.1484C43.6224 12.138 43.8177 12.0911 43.9844 12.0078C44.1562 11.9245 44.3021 11.7917 44.4219 11.6094C44.5469 11.4271 44.6484 11.1875 44.7266 10.8906C44.8099 10.5938 44.875 10.2318 44.9219 9.80469C44.974 9.3724 45.013 8.86458 45.0391 8.28125L45.1953 4.54688ZM53.6 4.54688V13H52.6625V4.54688H53.6ZM59.1625 4.54688L55.2875 9.125H53.2719L53.1703 8.28906H54.8891L57.9828 4.54688H59.1625ZM58.3187 13L54.7953 9L55.3891 8.28125L59.5531 13H58.3187ZM65.6453 11.4844V7.125C65.6453 6.72396 65.562 6.3776 65.3953 6.08594C65.2286 5.79427 64.9839 5.57031 64.6609 5.41406C64.338 5.25781 63.9396 5.17969 63.4656 5.17969C63.0281 5.17969 62.6375 5.25781 62.2938 5.41406C61.9552 5.5651 61.687 5.77083 61.4891 6.03125C61.2964 6.28646 61.2 6.57031 61.2 6.88281L60.2625 6.875C60.2625 6.55729 60.3406 6.25 60.4969 5.95312C60.6531 5.65625 60.8745 5.39062 61.1609 5.15625C61.4474 4.92188 61.7885 4.73698 62.1844 4.60156C62.5854 4.46094 63.0255 4.39062 63.5047 4.39062C64.1089 4.39062 64.6401 4.49219 65.0984 4.69531C65.562 4.89844 65.924 5.20312 66.1844 5.60938C66.4448 6.01562 66.575 6.52604 66.575 7.14062V11.2266C66.575 11.5182 66.5958 11.8203 66.6375 12.1328C66.6844 12.4453 66.7495 12.7031 66.8328 12.9062V13H65.8406C65.7781 12.8125 65.7286 12.5781 65.6922 12.2969C65.6609 12.0104 65.6453 11.7396 65.6453 11.4844ZM65.8641 8.07812L65.8797 8.79688H64.0438C63.5646 8.79688 63.1349 8.84115 62.7547 8.92969C62.3797 9.01302 62.062 9.13802 61.8016 9.30469C61.5411 9.46615 61.3406 9.66146 61.2 9.89062C61.0646 10.1198 60.9969 10.3802 60.9969 10.6719C60.9969 10.974 61.0724 11.25 61.2234 11.5C61.3797 11.75 61.5984 11.9505 61.8797 12.1016C62.1661 12.2474 62.5047 12.3203 62.8953 12.3203C63.4161 12.3203 63.8745 12.224 64.2703 12.0312C64.6714 11.8385 65.0021 11.5859 65.2625 11.2734C65.5229 10.9609 65.6974 10.6198 65.7859 10.25L66.1922 10.7891C66.1245 11.0495 65.9995 11.3177 65.8172 11.5938C65.6401 11.8646 65.4083 12.1198 65.1219 12.3594C64.8354 12.5938 64.4969 12.7865 64.1063 12.9375C63.7208 13.0833 63.2833 13.1562 62.7938 13.1562C62.2417 13.1562 61.7599 13.0521 61.3484 12.8438C60.9422 12.6354 60.6245 12.3516 60.3953 11.9922C60.1714 11.6276 60.0594 11.2161 60.0594 10.7578C60.0594 10.3411 60.1479 9.96875 60.325 9.64062C60.5021 9.30729 60.7573 9.02604 61.0906 8.79688C61.4292 8.5625 61.8354 8.38542 62.3094 8.26562C62.7885 8.14062 63.325 8.07812 63.9188 8.07812H65.8641ZM77.9547 8.32812V9.125H72.9391V8.32812H77.9547ZM73.1813 4.54688V13H72.2516V4.54688H73.1813ZM78.6734 4.54688V13H77.7359V4.54688H78.6734ZM85.9297 11.4844V7.125C85.9297 6.72396 85.8464 6.3776 85.6797 6.08594C85.513 5.79427 85.2682 5.57031 84.9453 5.41406C84.6224 5.25781 84.224 5.17969 83.75 5.17969C83.3125 5.17969 82.9219 5.25781 82.5781 5.41406C82.2396 5.5651 81.9714 5.77083 81.7734 6.03125C81.5807 6.28646 81.4844 6.57031 81.4844 6.88281L80.5469 6.875C80.5469 6.55729 80.625 6.25 80.7812 5.95312C80.9375 5.65625 81.1589 5.39062 81.4453 5.15625C81.7318 4.92188 82.0729 4.73698 82.4688 4.60156C82.8698 4.46094 83.3099 4.39062 83.7891 4.39062C84.3932 4.39062 84.9245 4.49219 85.3828 4.69531C85.8464 4.89844 86.2083 5.20312 86.4688 5.60938C86.7292 6.01562 86.8594 6.52604 86.8594 7.14062V11.2266C86.8594 11.5182 86.8802 11.8203 86.9219 12.1328C86.9688 12.4453 87.0339 12.7031 87.1172 12.9062V13H86.125C86.0625 12.8125 86.013 12.5781 85.9766 12.2969C85.9453 12.0104 85.9297 11.7396 85.9297 11.4844ZM86.1484 8.07812L86.1641 8.79688H84.3281C83.849 8.79688 83.4193 8.84115 83.0391 8.92969C82.6641 9.01302 82.3464 9.13802 82.0859 9.30469C81.8255 9.46615 81.625 9.66146 81.4844 9.89062C81.349 10.1198 81.2812 10.3802 81.2812 10.6719C81.2812 10.974 81.3568 11.25 81.5078 11.5C81.6641 11.75 81.8828 11.9505 82.1641 12.1016C82.4505 12.2474 82.7891 12.3203 83.1797 12.3203C83.7005 12.3203 84.1589 12.224 84.5547 12.0312C84.9557 11.8385 85.2865 11.5859 85.5469 11.2734C85.8073 10.9609 85.9818 10.6198 86.0703 10.25L86.4766 10.7891C86.4089 11.0495 86.2839 11.3177 86.1016 11.5938C85.9245 11.8646 85.6927 12.1198 85.4062 12.3594C85.1198 12.5938 84.7812 12.7865 84.3906 12.9375C84.0052 13.0833 83.5677 13.1562 83.0781 13.1562C82.526 13.1562 82.0443 13.0521 81.6328 12.8438C81.2266 12.6354 80.9089 12.3516 80.6797 11.9922C80.4557 11.6276 80.3438 11.2161 80.3438 10.7578C80.3438 10.3411 80.4323 9.96875 80.6094 9.64062C80.7865 9.30729 81.0417 9.02604 81.375 8.79688C81.7135 8.5625 82.1198 8.38542 82.5938 8.26562C83.0729 8.14062 83.6094 8.07812 84.2031 8.07812H86.1484ZM89.8891 6.17188V16.25H88.9516V4.54688H89.8266L89.8891 6.17188ZM95.7641 8.69531V8.85938C95.7641 9.48958 95.6911 10.0677 95.5453 10.5938C95.3995 11.1198 95.1885 11.5755 94.9125 11.9609C94.6417 12.3411 94.3057 12.6354 93.9047 12.8438C93.5036 13.0521 93.0479 13.1562 92.5375 13.1562C92.0323 13.1562 91.5818 13.0781 91.1859 12.9219C90.7901 12.7656 90.449 12.5443 90.1625 12.2578C89.8812 11.9661 89.6547 11.6276 89.4828 11.2422C89.3161 10.8516 89.199 10.4245 89.1312 9.96094V7.79688C89.2094 7.28646 89.337 6.82292 89.5141 6.40625C89.6911 5.98958 89.9177 5.63021 90.1937 5.32812C90.475 5.02604 90.8083 4.79427 91.1937 4.63281C91.5792 4.47135 92.0193 4.39062 92.5141 4.39062C93.0297 4.39062 93.488 4.49219 93.8891 4.69531C94.2953 4.89323 94.6365 5.18229 94.9125 5.5625C95.1937 5.9375 95.4047 6.39062 95.5453 6.92188C95.6911 7.44792 95.7641 8.03906 95.7641 8.69531ZM94.8266 8.85938V8.69531C94.8266 8.20052 94.7745 7.74219 94.6703 7.32031C94.5714 6.89844 94.4177 6.53125 94.2094 6.21875C94.0062 5.90104 93.7458 5.65365 93.4281 5.47656C93.1156 5.29948 92.7432 5.21094 92.3109 5.21094C91.863 5.21094 91.4802 5.28646 91.1625 5.4375C90.85 5.58333 90.5896 5.77865 90.3812 6.02344C90.1729 6.26302 90.0089 6.52604 89.8891 6.8125C89.7693 7.09896 89.6807 7.38021 89.6234 7.65625V10.1484C89.7224 10.5443 89.8812 10.9115 90.1 11.25C90.3187 11.5833 90.6104 11.8516 90.975 12.0547C91.3448 12.2526 91.7953 12.3516 92.3266 12.3516C92.7536 12.3516 93.1234 12.263 93.4359 12.0859C93.7484 11.9089 94.0062 11.6615 94.2094 11.3438C94.4177 11.026 94.5714 10.6562 94.6703 10.2344C94.7745 9.8125 94.8266 9.35417 94.8266 8.85938ZM99.2859 9.125H100.317L97.9734 13H96.9422L99.2859 9.125ZM100.278 4.54688H103.598V13H102.669V5.34375H100.278C99.7833 5.34375 99.3797 5.42708 99.0672 5.59375C98.7599 5.75521 98.5333 5.96875 98.3875 6.23438C98.2469 6.5 98.1766 6.78385 98.1766 7.08594C98.1766 7.3724 98.2391 7.64583 98.3641 7.90625C98.4943 8.16667 98.6948 8.38021 98.9656 8.54688C99.2365 8.70833 99.588 8.78906 100.02 8.78906H103.005V9.59375H100.02C99.5776 9.59375 99.1844 9.53125 98.8406 9.40625C98.4969 9.28125 98.2052 9.10677 97.9656 8.88281C97.7312 8.65365 97.5516 8.38542 97.4266 8.07812C97.3068 7.76562 97.2469 7.42969 97.2469 7.07031C97.2469 6.70573 97.312 6.3724 97.4422 6.07031C97.5776 5.76302 97.7729 5.49479 98.0281 5.26562C98.2885 5.03646 98.6062 4.85938 98.9812 4.73438C99.3615 4.60938 99.7937 4.54688 100.278 4.54688ZM107.23 4.54688H108.159L108.019 7.59375C107.982 8.40625 107.891 9.11198 107.745 9.71094C107.605 10.3047 107.43 10.8125 107.222 11.2344C107.014 11.651 106.784 12.0026 106.534 12.2891C106.29 12.5703 106.04 12.8073 105.784 13H105.277L105.292 12.2031L105.527 12.1953C105.678 12.013 105.834 11.8073 105.995 11.5781C106.162 11.3438 106.321 11.0573 106.472 10.7188C106.623 10.3802 106.753 9.95833 106.863 9.45312C106.972 8.94792 107.045 8.32812 107.081 7.59375L107.23 4.54688ZM107.534 4.54688H112.214V13H111.284V5.42188H107.534V4.54688ZM104.917 12.1953H113.097V15.4844H112.159V13H105.808V15.4844H104.917V12.1953ZM120.267 8.32812V9.125H115.252V8.32812H120.267ZM115.494 4.54688V13H114.564V4.54688H115.494ZM120.986 4.54688V13H120.048V4.54688H120.986ZM128.242 11.4844V7.125C128.242 6.72396 128.159 6.3776 127.992 6.08594C127.826 5.79427 127.581 5.57031 127.258 5.41406C126.935 5.25781 126.536 5.17969 126.062 5.17969C125.625 5.17969 125.234 5.25781 124.891 5.41406C124.552 5.5651 124.284 5.77083 124.086 6.03125C123.893 6.28646 123.797 6.57031 123.797 6.88281L122.859 6.875C122.859 6.55729 122.938 6.25 123.094 5.95312C123.25 5.65625 123.471 5.39062 123.758 5.15625C124.044 4.92188 124.385 4.73698 124.781 4.60156C125.182 4.46094 125.622 4.39062 126.102 4.39062C126.706 4.39062 127.237 4.49219 127.695 4.69531C128.159 4.89844 128.521 5.20312 128.781 5.60938C129.042 6.01562 129.172 6.52604 129.172 7.14062V11.2266C129.172 11.5182 129.193 11.8203 129.234 12.1328C129.281 12.4453 129.346 12.7031 129.43 12.9062V13H128.438C128.375 12.8125 128.326 12.5781 128.289 12.2969C128.258 12.0104 128.242 11.7396 128.242 11.4844ZM128.461 8.07812L128.477 8.79688H126.641C126.161 8.79688 125.732 8.84115 125.352 8.92969C124.977 9.01302 124.659 9.13802 124.398 9.30469C124.138 9.46615 123.938 9.66146 123.797 9.89062C123.661 10.1198 123.594 10.3802 123.594 10.6719C123.594 10.974 123.669 11.25 123.82 11.5C123.977 11.75 124.195 11.9505 124.477 12.1016C124.763 12.2474 125.102 12.3203 125.492 12.3203C126.013 12.3203 126.471 12.224 126.867 12.0312C127.268 11.8385 127.599 11.5859 127.859 11.2734C128.12 10.9609 128.294 10.6198 128.383 10.25L128.789 10.7891C128.721 11.0495 128.596 11.3177 128.414 11.5938C128.237 11.8646 128.005 12.1198 127.719 12.3594C127.432 12.5938 127.094 12.7865 126.703 12.9375C126.318 13.0833 125.88 13.1562 125.391 13.1562C124.839 13.1562 124.357 13.0521 123.945 12.8438C123.539 12.6354 123.221 12.3516 122.992 11.9922C122.768 11.6276 122.656 11.2161 122.656 10.7578C122.656 10.3411 122.745 9.96875 122.922 9.64062C123.099 9.30729 123.354 9.02604 123.688 8.79688C124.026 8.5625 124.432 8.38542 124.906 8.26562C125.385 8.14062 125.922 8.07812 126.516 8.07812H128.461ZM133.123 9.125H134.155L131.811 13H130.78L133.123 9.125ZM134.116 4.54688H137.436V13H136.506V5.34375H134.116C133.621 5.34375 133.217 5.42708 132.905 5.59375C132.597 5.75521 132.371 5.96875 132.225 6.23438C132.084 6.5 132.014 6.78385 132.014 7.08594C132.014 7.3724 132.077 7.64583 132.202 7.90625C132.332 8.16667 132.532 8.38021 132.803 8.54688C133.074 8.70833 133.426 8.78906 133.858 8.78906H136.842V9.59375H133.858C133.415 9.59375 133.022 9.53125 132.678 9.40625C132.334 9.28125 132.043 9.10677 131.803 8.88281C131.569 8.65365 131.389 8.38542 131.264 8.07812C131.144 7.76562 131.084 7.42969 131.084 7.07031C131.084 6.70573 131.149 6.3724 131.28 6.07031C131.415 5.76302 131.61 5.49479 131.866 5.26562C132.126 5.03646 132.444 4.85938 132.819 4.73438C133.199 4.60938 133.631 4.54688 134.116 4.54688ZM147.683 1.625L142.933 13.9766H142.089L146.839 1.625H147.683ZM158.273 4.54688V5.35938H153.992V4.54688H158.273ZM159.031 4.54688V13H158.102V4.54688H159.031ZM153.742 4.54688H154.672L154.484 8.50781C154.453 9.14844 154.401 9.71615 154.328 10.2109C154.26 10.7057 154.167 11.1302 154.047 11.4844C153.927 11.8333 153.773 12.1198 153.586 12.3438C153.404 12.5677 153.182 12.7344 152.922 12.8438C152.661 12.9479 152.357 13 152.008 13H151.656V12.1562L151.945 12.1484C152.169 12.138 152.365 12.0911 152.531 12.0078C152.703 11.9245 152.849 11.7917 152.969 11.6094C153.094 11.4271 153.195 11.1875 153.273 10.8906C153.357 10.5938 153.422 10.2318 153.469 9.80469C153.521 9.3724 153.56 8.86458 153.586 8.28125L153.742 4.54688ZM164.42 13.1562C163.868 13.1562 163.36 13.0547 162.897 12.8516C162.439 12.6484 162.038 12.362 161.694 11.9922C161.355 11.6224 161.092 11.1849 160.905 10.6797C160.722 10.1693 160.631 9.61198 160.631 9.00781V8.67188C160.631 8.02083 160.728 7.43229 160.92 6.90625C161.113 6.38021 161.379 5.92969 161.717 5.55469C162.056 5.17969 162.441 4.89323 162.873 4.69531C163.311 4.49219 163.769 4.39062 164.248 4.39062C164.785 4.39062 165.261 4.48698 165.678 4.67969C166.095 4.86719 166.444 5.13542 166.725 5.48438C167.011 5.82812 167.228 6.23698 167.373 6.71094C167.519 7.17969 167.592 7.69792 167.592 8.26562V8.83594H161.194V8.03906H166.663V7.92969C166.652 7.45573 166.556 7.01302 166.373 6.60156C166.196 6.1849 165.931 5.84635 165.577 5.58594C165.222 5.32552 164.78 5.19531 164.248 5.19531C163.853 5.19531 163.488 5.27865 163.155 5.44531C162.827 5.61198 162.543 5.85156 162.303 6.16406C162.069 6.47135 161.886 6.83854 161.756 7.26562C161.631 7.6875 161.569 8.15625 161.569 8.67188V9.00781C161.569 9.47656 161.636 9.91406 161.772 10.3203C161.913 10.7214 162.11 11.0755 162.366 11.3828C162.626 11.6901 162.933 11.9297 163.288 12.1016C163.642 12.2734 164.032 12.3594 164.459 12.3594C164.959 12.3594 165.402 12.2682 165.788 12.0859C166.173 11.8984 166.519 11.6042 166.827 11.2031L167.413 11.6562C167.23 11.9271 167.001 12.1771 166.725 12.4062C166.454 12.6354 166.129 12.8177 165.748 12.9531C165.368 13.0885 164.926 13.1562 164.42 13.1562ZM171.927 4.54688V13H170.997V4.54688H171.927ZM175.005 4.54688V5.34375H168.028V4.54688H175.005ZM181.917 8.32812V9.125H176.902V8.32812H181.917ZM177.144 4.54688V13H176.214V4.54688H177.144ZM182.636 4.54688V13H181.698V4.54688H182.636ZM186.595 9.125H187.627L185.283 13H184.252L186.595 9.125ZM187.587 4.54688H190.908V13H189.978V5.34375H187.587C187.093 5.34375 186.689 5.42708 186.377 5.59375C186.069 5.75521 185.843 5.96875 185.697 6.23438C185.556 6.5 185.486 6.78385 185.486 7.08594C185.486 7.3724 185.548 7.64583 185.673 7.90625C185.804 8.16667 186.004 8.38021 186.275 8.54688C186.546 8.70833 186.897 8.78906 187.33 8.78906H190.314V9.59375H187.33C186.887 9.59375 186.494 9.53125 186.15 9.40625C185.806 9.28125 185.515 9.10677 185.275 8.88281C185.041 8.65365 184.861 8.38542 184.736 8.07812C184.616 7.76562 184.556 7.42969 184.556 7.07031C184.556 6.70573 184.621 6.3724 184.752 6.07031C184.887 5.76302 185.082 5.49479 185.337 5.26562C185.598 5.03646 185.916 4.85938 186.291 4.73438C186.671 4.60938 187.103 4.54688 187.587 4.54688ZM194.883 9.125H195.914L193.57 13H192.539L194.883 9.125ZM195.875 4.54688H199.195V13H198.266V5.34375H195.875C195.38 5.34375 194.977 5.42708 194.664 5.59375C194.357 5.75521 194.13 5.96875 193.984 6.23438C193.844 6.5 193.773 6.78385 193.773 7.08594C193.773 7.3724 193.836 7.64583 193.961 7.90625C194.091 8.16667 194.292 8.38021 194.562 8.54688C194.833 8.70833 195.185 8.78906 195.617 8.78906H198.602V9.59375H195.617C195.174 9.59375 194.781 9.53125 194.438 9.40625C194.094 9.28125 193.802 9.10677 193.562 8.88281C193.328 8.65365 193.148 8.38542 193.023 8.07812C192.904 7.76562 192.844 7.42969 192.844 7.07031C192.844 6.70573 192.909 6.3724 193.039 6.07031C193.174 5.76302 193.37 5.49479 193.625 5.26562C193.885 5.03646 194.203 4.85938 194.578 4.73438C194.958 4.60938 195.391 4.54688 195.875 4.54688Z" fill="black"/>
</svg>
