<svg width="99" height="19" viewBox="0 0 99 19" fill="none" xmlns="http://www.w3.org/2000/svg">
<path d="M8.59766 0.925781V18H4.92969V5.09766L0.96875 6.30469V3.46875L8.23438 0.925781H8.59766ZM16.8922 7.91016H18.7555C19.2867 7.91016 19.7242 7.81641 20.068 7.62891C20.4195 7.44141 20.6773 7.17578 20.8414 6.83203C21.0133 6.48828 21.0992 6.08594 21.0992 5.625C21.0992 5.22656 21.0211 4.87109 20.8648 4.55859C20.7086 4.24609 20.4703 4 20.15 3.82031C19.8375 3.63281 19.4312 3.53906 18.9312 3.53906C18.5719 3.53906 18.2281 3.61328 17.9 3.76172C17.5797 3.90234 17.318 4.10938 17.1148 4.38281C16.9117 4.64844 16.8102 4.96875 16.8102 5.34375H13.1422C13.1422 4.39062 13.4 3.56641 13.9156 2.87109C14.4391 2.17578 15.1305 1.64062 15.9898 1.26562C16.857 0.882812 17.8023 0.691406 18.8258 0.691406C20.0055 0.691406 21.0406 0.878906 21.9312 1.25391C22.8297 1.62109 23.525 2.16797 24.0172 2.89453C24.5172 3.61328 24.7672 4.50391 24.7672 5.56641C24.7672 6.12109 24.6344 6.65625 24.3687 7.17188C24.1109 7.67969 23.7398 8.13281 23.2555 8.53125C22.7789 8.92188 22.2086 9.23438 21.5445 9.46875C20.8883 9.69531 20.1578 9.80859 19.3531 9.80859H16.8922V7.91016ZM16.8922 10.6641V8.80078H19.3531C20.2437 8.80078 21.0406 8.90234 21.7437 9.10547C22.4469 9.30859 23.0445 9.60156 23.5367 9.98438C24.0289 10.3672 24.4039 10.832 24.6617 11.3789C24.9195 11.9258 25.0484 12.5352 25.0484 13.207C25.0484 14.0039 24.8922 14.7148 24.5797 15.3398C24.2672 15.9648 23.8297 16.4922 23.2672 16.9219C22.7047 17.3516 22.0445 17.6797 21.2867 17.9062C20.5289 18.125 19.7086 18.2344 18.8258 18.2344C18.1148 18.2344 17.4078 18.1367 16.7047 17.9414C16.0016 17.7461 15.3648 17.4492 14.7945 17.0508C14.2242 16.6445 13.7672 16.1328 13.4234 15.5156C13.0797 14.8906 12.9078 14.1484 12.9078 13.2891H16.5758C16.5758 13.6875 16.6773 14.0469 16.8805 14.3672C17.0914 14.6797 17.3766 14.9297 17.7359 15.1172C18.1031 15.2969 18.5016 15.3867 18.9312 15.3867C19.4469 15.3867 19.8844 15.293 20.2437 15.1055C20.6109 14.9102 20.8883 14.6445 21.0758 14.3086C21.2711 13.9727 21.3687 13.5859 21.3687 13.1484C21.3687 12.5547 21.2633 12.0781 21.0523 11.7188C20.8492 11.3516 20.5523 11.0859 20.1617 10.9219C19.7711 10.75 19.3023 10.6641 18.7555 10.6641H16.8922ZM29.8859 10.3125L26.9797 9.62109L27.9758 0.9375H37.7492V3.83203H30.9758L30.5656 7.42969C30.7766 7.30469 31.1086 7.16797 31.5617 7.01953C32.0148 6.86328 32.5227 6.78516 33.0852 6.78516C33.9211 6.78516 34.6633 6.91406 35.3117 7.17188C35.9602 7.42969 36.507 7.80469 36.9523 8.29688C37.4055 8.78125 37.7453 9.37891 37.9719 10.0898C38.2062 10.8008 38.3234 11.6094 38.3234 12.5156C38.3234 13.2656 38.2062 13.9844 37.9719 14.6719C37.7375 15.3516 37.3781 15.9609 36.8937 16.5C36.4172 17.0312 35.8117 17.4531 35.0773 17.7656C34.343 18.0781 33.4797 18.2344 32.4875 18.2344C31.7375 18.2344 31.0109 18.1211 30.3078 17.8945C29.6047 17.668 28.9719 17.3398 28.4094 16.9102C27.8547 16.4727 27.4133 15.9414 27.0852 15.3164C26.7648 14.6914 26.6008 13.9883 26.593 13.207H30.2492C30.2883 13.6602 30.4016 14.0508 30.5891 14.3789C30.7766 14.6992 31.0305 14.9492 31.3508 15.1289C31.6711 15.3008 32.0422 15.3867 32.4641 15.3867C32.8703 15.3867 33.2141 15.3086 33.4953 15.1523C33.7766 14.9883 33.9992 14.7656 34.1633 14.4844C34.3352 14.2031 34.4602 13.875 34.5383 13.5C34.6164 13.125 34.6555 12.7227 34.6555 12.293C34.6555 11.8477 34.6047 11.4492 34.5031 11.0977C34.4016 10.7383 34.2453 10.4336 34.0344 10.1836C33.8234 9.92578 33.5539 9.73047 33.2258 9.59766C32.9055 9.45703 32.5187 9.38672 32.0656 9.38672C31.4719 9.38672 31.007 9.48438 30.6711 9.67969C30.3352 9.875 30.0734 10.0859 29.8859 10.3125ZM51.5281 7.94531V10.9805C51.5281 12.2305 51.3875 13.3125 51.1063 14.2266C50.8328 15.1406 50.4344 15.8945 49.9109 16.4883C49.3953 17.082 48.7781 17.5234 48.0594 17.8125C47.3484 18.0938 46.5594 18.2344 45.6922 18.2344C44.9969 18.2344 44.3484 18.1445 43.7469 17.9648C43.1453 17.7852 42.6023 17.5078 42.118 17.1328C41.6414 16.75 41.2313 16.2734 40.8875 15.7031C40.5438 15.1328 40.2781 14.4531 40.0906 13.6641C39.9109 12.875 39.8211 11.9805 39.8211 10.9805V7.94531C39.8211 6.67969 39.9578 5.59375 40.2313 4.6875C40.5125 3.78125 40.9148 3.03125 41.4383 2.4375C41.9617 1.84375 42.5789 1.40625 43.2898 1.125C44.0086 0.84375 44.8016 0.703125 45.6688 0.703125C46.3641 0.703125 47.0086 0.792969 47.6023 0.972656C48.2039 1.15234 48.7469 1.42969 49.2313 1.80469C49.7156 2.17969 50.1258 2.65234 50.4617 3.22266C50.8055 3.79297 51.0672 4.47266 51.2469 5.26172C51.4344 6.04297 51.5281 6.9375 51.5281 7.94531ZM47.8719 11.4375V7.46484C47.8719 6.87891 47.8367 6.37109 47.7664 5.94141C47.7039 5.50391 47.6102 5.13281 47.4852 4.82812C47.368 4.52344 47.2195 4.27734 47.0398 4.08984C46.8602 3.90234 46.6531 3.76562 46.4188 3.67969C46.1922 3.58594 45.9422 3.53906 45.6688 3.53906C45.325 3.53906 45.0164 3.60938 44.743 3.75C44.4695 3.89062 44.2391 4.11328 44.0516 4.41797C43.8641 4.71484 43.7195 5.11719 43.618 5.625C43.5242 6.125 43.4773 6.73828 43.4773 7.46484V11.4375C43.4773 12.0234 43.5086 12.5352 43.5711 12.9727C43.6414 13.4102 43.7352 13.7852 43.8523 14.0977C43.9773 14.4023 44.1297 14.6523 44.3094 14.8477C44.4891 15.0352 44.6961 15.1719 44.9305 15.2578C45.1648 15.3438 45.4188 15.3867 45.6922 15.3867C46.0359 15.3867 46.3406 15.3203 46.6063 15.1875C46.8719 15.0469 47.0984 14.8242 47.2859 14.5195C47.4813 14.207 47.6258 13.7969 47.7195 13.2891C47.8211 12.7812 47.8719 12.1641 47.8719 11.4375ZM63.8984 15.3867C64.2891 15.3867 64.6289 15.3125 64.918 15.1641C65.207 15.0156 65.4297 14.8086 65.5859 14.543C65.75 14.2695 65.832 13.9414 65.832 13.5586H69.2773C69.2773 14.4805 69.0391 15.293 68.5625 15.9961C68.0938 16.6992 67.4609 17.25 66.6641 17.6484C65.8672 18.0391 64.9688 18.2344 63.9688 18.2344C62.9844 18.2344 62.125 18.0742 61.3906 17.7539C60.6562 17.4258 60.043 16.9688 59.5508 16.3828C59.0586 15.7969 58.6875 15.1172 58.4375 14.3438C58.1953 13.5625 58.0742 12.7188 58.0742 11.8125V11.5078C58.0742 10.6094 58.1953 9.76953 58.4375 8.98828C58.6875 8.20703 59.0586 7.52344 59.5508 6.9375C60.043 6.35156 60.6523 5.89844 61.3789 5.57812C62.1133 5.25 62.9727 5.08594 63.957 5.08594C64.9961 5.08594 65.9141 5.28516 66.7109 5.68359C67.5156 6.08203 68.1445 6.65625 68.5977 7.40625C69.0508 8.14844 69.2773 9.04297 69.2773 10.0898H65.832C65.832 9.68359 65.7578 9.32031 65.6094 9C65.4688 8.67188 65.25 8.41406 64.9531 8.22656C64.6641 8.03125 64.3047 7.93359 63.875 7.93359C63.4297 7.93359 63.0625 8.03125 62.7734 8.22656C62.4922 8.41406 62.2773 8.67578 62.1289 9.01172C61.9805 9.34766 61.8789 9.73047 61.8242 10.1602C61.7695 10.582 61.7422 11.0312 61.7422 11.5078V11.8125C61.7422 12.2969 61.7695 12.7578 61.8242 13.1953C61.8789 13.625 61.9805 14.0039 62.1289 14.332C62.2852 14.6602 62.5039 14.918 62.7852 15.1055C63.0664 15.293 63.4375 15.3867 63.8984 15.3867ZM69.9664 11.7891V11.543C69.9664 10.6133 70.0992 9.75781 70.3648 8.97656C70.6305 8.1875 71.0211 7.50391 71.5367 6.92578C72.0523 6.34766 72.6852 5.89844 73.4352 5.57812C74.1852 5.25 75.0445 5.08594 76.0133 5.08594C76.9977 5.08594 77.8648 5.25 78.6148 5.57812C79.3727 5.89844 80.0094 6.34766 80.525 6.92578C81.0406 7.50391 81.4313 8.1875 81.6969 8.97656C81.9625 9.75781 82.0953 10.6133 82.0953 11.543V11.7891C82.0953 12.7109 81.9625 13.5664 81.6969 14.3555C81.4313 15.1367 81.0406 15.8203 80.525 16.4062C80.0094 16.9844 79.3766 17.4336 78.6266 17.7539C77.8766 18.0742 77.0133 18.2344 76.0367 18.2344C75.068 18.2344 74.2047 18.0742 73.4469 17.7539C72.6891 17.4336 72.0523 16.9844 71.5367 16.4062C71.0211 15.8203 70.6305 15.1367 70.3648 14.3555C70.0992 13.5664 69.9664 12.7109 69.9664 11.7891ZM73.6344 11.543V11.7891C73.6344 12.2891 73.6734 12.7578 73.7516 13.1953C73.8375 13.6328 73.9742 14.0156 74.1617 14.3438C74.3492 14.6719 74.5953 14.9297 74.9 15.1172C75.2125 15.2969 75.5914 15.3867 76.0367 15.3867C76.482 15.3867 76.857 15.2969 77.1617 15.1172C77.4664 14.9297 77.7125 14.6719 77.9 14.3438C78.0875 14.0156 78.2203 13.6328 78.2984 13.1953C78.3844 12.7578 78.4273 12.2891 78.4273 11.7891V11.543C78.4273 11.0508 78.3844 10.5898 78.2984 10.1602C78.2203 9.72266 78.0875 9.33594 77.9 9C77.7125 8.66406 77.4625 8.40234 77.15 8.21484C76.8453 8.02734 76.4664 7.93359 76.0133 7.93359C75.5758 7.93359 75.2047 8.02734 74.9 8.21484C74.5953 8.40234 74.3492 8.66406 74.1617 9C73.9742 9.33594 73.8375 9.72266 73.7516 10.1602C73.6734 10.5898 73.6344 11.0508 73.6344 11.543ZM91.2336 13.875L94.3391 5.32031H97.2453L92.4641 18H90.0148L85.257 5.32031H88.1633L91.2336 13.875ZM87.3195 5.32031V18H83.6516V5.32031H87.3195ZM95.2766 18V5.32031H98.9328V18H95.2766Z" fill="black"/>
</svg>
