<svg width="100" height="19" viewBox="0 0 100 19" fill="none" xmlns="http://www.w3.org/2000/svg">
<path d="M12.9023 15.1523V18H1.11328V15.5859L6.62109 9.75C7.13672 9.15625 7.54688 8.63281 7.85156 8.17969C8.16406 7.72656 8.39062 7.31641 8.53125 6.94922C8.67188 6.57422 8.74219 6.23047 8.74219 5.91797C8.74219 5.41016 8.66016 4.98047 8.49609 4.62891C8.33984 4.27734 8.10938 4.00781 7.80469 3.82031C7.5 3.63281 7.12891 3.53906 6.69141 3.53906C6.22266 3.53906 5.82031 3.66016 5.48438 3.90234C5.14844 4.14453 4.89062 4.48047 4.71094 4.91016C4.53125 5.33203 4.44141 5.8125 4.44141 6.35156H0.761719C0.761719 5.3125 1.01172 4.36719 1.51172 3.51562C2.01172 2.65625 2.71094 1.97266 3.60938 1.46484C4.50781 0.949219 5.55859 0.691406 6.76172 0.691406C7.99609 0.691406 9.03125 0.886719 9.86719 1.27734C10.7031 1.66797 11.3359 2.22656 11.7656 2.95312C12.1953 3.67969 12.4102 4.55469 12.4102 5.57812C12.4102 6.15625 12.3164 6.71484 12.1289 7.25391C11.9492 7.79297 11.6875 8.32812 11.3438 8.85938C11 9.39062 10.5859 9.93359 10.1016 10.4883C9.61719 11.0352 9.07031 11.6133 8.46094 12.2227L5.88281 15.1523H12.9023ZM22.8492 0.925781V18H19.1812V5.09766L15.2203 6.30469V3.46875L22.4859 0.925781H22.8492ZM39.2766 7.94531V10.9805C39.2766 12.2305 39.1359 13.3125 38.8547 14.2266C38.5812 15.1406 38.1828 15.8945 37.6594 16.4883C37.1437 17.082 36.5266 17.5234 35.8078 17.8125C35.0969 18.0938 34.3078 18.2344 33.4406 18.2344C32.7453 18.2344 32.0969 18.1445 31.4953 17.9648C30.8937 17.7852 30.3508 17.5078 29.8664 17.1328C29.3898 16.75 28.9797 16.2734 28.6359 15.7031C28.2922 15.1328 28.0266 14.4531 27.8391 13.6641C27.6594 12.875 27.5695 11.9805 27.5695 10.9805V7.94531C27.5695 6.67969 27.7062 5.59375 27.9797 4.6875C28.2609 3.78125 28.6633 3.03125 29.1867 2.4375C29.7102 1.84375 30.3273 1.40625 31.0383 1.125C31.757 0.84375 32.55 0.703125 33.4172 0.703125C34.1125 0.703125 34.757 0.792969 35.3508 0.972656C35.9523 1.15234 36.4953 1.42969 36.9797 1.80469C37.4641 2.17969 37.8742 2.65234 38.2102 3.22266C38.5539 3.79297 38.8156 4.47266 38.9953 5.26172C39.1828 6.04297 39.2766 6.9375 39.2766 7.94531ZM35.6203 11.4375V7.46484C35.6203 6.87891 35.5852 6.37109 35.5148 5.94141C35.4523 5.50391 35.3586 5.13281 35.2336 4.82812C35.1164 4.52344 34.968 4.27734 34.7883 4.08984C34.6086 3.90234 34.4016 3.76562 34.1672 3.67969C33.9406 3.58594 33.6906 3.53906 33.4172 3.53906C33.0734 3.53906 32.7648 3.60938 32.4914 3.75C32.218 3.89062 31.9875 4.11328 31.8 4.41797C31.6125 4.71484 31.468 5.11719 31.3664 5.625C31.2727 6.125 31.2258 6.73828 31.2258 7.46484V11.4375C31.2258 12.0234 31.257 12.5352 31.3195 12.9727C31.3898 13.4102 31.4836 13.7852 31.6008 14.0977C31.7258 14.4023 31.8781 14.6523 32.0578 14.8477C32.2375 15.0352 32.4445 15.1719 32.6789 15.2578C32.9133 15.3438 33.1672 15.3867 33.4406 15.3867C33.7844 15.3867 34.0891 15.3203 34.3547 15.1875C34.6203 15.0469 34.8469 14.8242 35.0344 14.5195C35.2297 14.207 35.3742 13.7969 35.468 13.2891C35.5695 12.7812 35.6203 12.1641 35.6203 11.4375ZM52.5281 7.94531V10.9805C52.5281 12.2305 52.3875 13.3125 52.1063 14.2266C51.8328 15.1406 51.4344 15.8945 50.9109 16.4883C50.3953 17.082 49.7781 17.5234 49.0594 17.8125C48.3484 18.0938 47.5594 18.2344 46.6922 18.2344C45.9969 18.2344 45.3484 18.1445 44.7469 17.9648C44.1453 17.7852 43.6023 17.5078 43.118 17.1328C42.6414 16.75 42.2313 16.2734 41.8875 15.7031C41.5438 15.1328 41.2781 14.4531 41.0906 13.6641C40.9109 12.875 40.8211 11.9805 40.8211 10.9805V7.94531C40.8211 6.67969 40.9578 5.59375 41.2313 4.6875C41.5125 3.78125 41.9148 3.03125 42.4383 2.4375C42.9617 1.84375 43.5789 1.40625 44.2898 1.125C45.0086 0.84375 45.8016 0.703125 46.6688 0.703125C47.3641 0.703125 48.0086 0.792969 48.6023 0.972656C49.2039 1.15234 49.7469 1.42969 50.2313 1.80469C50.7156 2.17969 51.1258 2.65234 51.4617 3.22266C51.8055 3.79297 52.0672 4.47266 52.2469 5.26172C52.4344 6.04297 52.5281 6.9375 52.5281 7.94531ZM48.8719 11.4375V7.46484C48.8719 6.87891 48.8367 6.37109 48.7664 5.94141C48.7039 5.50391 48.6102 5.13281 48.4852 4.82812C48.368 4.52344 48.2195 4.27734 48.0398 4.08984C47.8602 3.90234 47.6531 3.76562 47.4188 3.67969C47.1922 3.58594 46.9422 3.53906 46.6688 3.53906C46.325 3.53906 46.0164 3.60938 45.743 3.75C45.4695 3.89062 45.2391 4.11328 45.0516 4.41797C44.8641 4.71484 44.7195 5.11719 44.618 5.625C44.5242 6.125 44.4773 6.73828 44.4773 7.46484V11.4375C44.4773 12.0234 44.5086 12.5352 44.5711 12.9727C44.6414 13.4102 44.7352 13.7852 44.8523 14.0977C44.9773 14.4023 45.1297 14.6523 45.3094 14.8477C45.4891 15.0352 45.6961 15.1719 45.9305 15.2578C46.1648 15.3438 46.4188 15.3867 46.6922 15.3867C47.0359 15.3867 47.3406 15.3203 47.6063 15.1875C47.8719 15.0469 48.0984 14.8242 48.2859 14.5195C48.4813 14.207 48.6258 13.7969 48.7195 13.2891C48.8211 12.7812 48.8719 12.1641 48.8719 11.4375ZM64.8984 15.3867C65.2891 15.3867 65.6289 15.3125 65.918 15.1641C66.207 15.0156 66.4297 14.8086 66.5859 14.543C66.75 14.2695 66.832 13.9414 66.832 13.5586H70.2773C70.2773 14.4805 70.0391 15.293 69.5625 15.9961C69.0938 16.6992 68.4609 17.25 67.6641 17.6484C66.8672 18.0391 65.9688 18.2344 64.9688 18.2344C63.9844 18.2344 63.125 18.0742 62.3906 17.7539C61.6562 17.4258 61.043 16.9688 60.5508 16.3828C60.0586 15.7969 59.6875 15.1172 59.4375 14.3438C59.1953 13.5625 59.0742 12.7188 59.0742 11.8125V11.5078C59.0742 10.6094 59.1953 9.76953 59.4375 8.98828C59.6875 8.20703 60.0586 7.52344 60.5508 6.9375C61.043 6.35156 61.6523 5.89844 62.3789 5.57812C63.1133 5.25 63.9727 5.08594 64.957 5.08594C65.9961 5.08594 66.9141 5.28516 67.7109 5.68359C68.5156 6.08203 69.1445 6.65625 69.5977 7.40625C70.0508 8.14844 70.2773 9.04297 70.2773 10.0898H66.832C66.832 9.68359 66.7578 9.32031 66.6094 9C66.4688 8.67188 66.25 8.41406 65.9531 8.22656C65.6641 8.03125 65.3047 7.93359 64.875 7.93359C64.4297 7.93359 64.0625 8.03125 63.7734 8.22656C63.4922 8.41406 63.2773 8.67578 63.1289 9.01172C62.9805 9.34766 62.8789 9.73047 62.8242 10.1602C62.7695 10.582 62.7422 11.0312 62.7422 11.5078V11.8125C62.7422 12.2969 62.7695 12.7578 62.8242 13.1953C62.8789 13.625 62.9805 14.0039 63.1289 14.332C63.2852 14.6602 63.5039 14.918 63.7852 15.1055C64.0664 15.293 64.4375 15.3867 64.8984 15.3867ZM70.9664 11.7891V11.543C70.9664 10.6133 71.0992 9.75781 71.3648 8.97656C71.6305 8.1875 72.0211 7.50391 72.5367 6.92578C73.0523 6.34766 73.6852 5.89844 74.4352 5.57812C75.1852 5.25 76.0445 5.08594 77.0133 5.08594C77.9977 5.08594 78.8648 5.25 79.6148 5.57812C80.3727 5.89844 81.0094 6.34766 81.525 6.92578C82.0406 7.50391 82.4313 8.1875 82.6969 8.97656C82.9625 9.75781 83.0953 10.6133 83.0953 11.543V11.7891C83.0953 12.7109 82.9625 13.5664 82.6969 14.3555C82.4313 15.1367 82.0406 15.8203 81.525 16.4062C81.0094 16.9844 80.3766 17.4336 79.6266 17.7539C78.8766 18.0742 78.0133 18.2344 77.0367 18.2344C76.068 18.2344 75.2047 18.0742 74.4469 17.7539C73.6891 17.4336 73.0523 16.9844 72.5367 16.4062C72.0211 15.8203 71.6305 15.1367 71.3648 14.3555C71.0992 13.5664 70.9664 12.7109 70.9664 11.7891ZM74.6344 11.543V11.7891C74.6344 12.2891 74.6734 12.7578 74.7516 13.1953C74.8375 13.6328 74.9742 14.0156 75.1617 14.3438C75.3492 14.6719 75.5953 14.9297 75.9 15.1172C76.2125 15.2969 76.5914 15.3867 77.0367 15.3867C77.482 15.3867 77.857 15.2969 78.1617 15.1172C78.4664 14.9297 78.7125 14.6719 78.9 14.3438C79.0875 14.0156 79.2203 13.6328 79.2984 13.1953C79.3844 12.7578 79.4273 12.2891 79.4273 11.7891V11.543C79.4273 11.0508 79.3844 10.5898 79.2984 10.1602C79.2203 9.72266 79.0875 9.33594 78.9 9C78.7125 8.66406 78.4625 8.40234 78.15 8.21484C77.8453 8.02734 77.4664 7.93359 77.0133 7.93359C76.5758 7.93359 76.2047 8.02734 75.9 8.21484C75.5953 8.40234 75.3492 8.66406 75.1617 9C74.9742 9.33594 74.8375 9.72266 74.7516 10.1602C74.6734 10.5898 74.6344 11.0508 74.6344 11.543ZM92.2336 13.875L95.3391 5.32031H98.2453L93.4641 18H91.0148L86.257 5.32031H89.1633L92.2336 13.875ZM88.3195 5.32031V18H84.6516V5.32031H88.3195ZM96.2766 18V5.32031H99.9328V18H96.2766Z" fill="black"/>
</svg>
